<?xml version="1.0" encoding="UTF-8"?>
<svg xmlns="http://www.w3.org/2000/svg" xmlns:xlink="http://www.w3.org/1999/xlink" width="50px" height="50px" viewBox="0 0 50 50" version="1.1">
<g id="surface1">
<path style=" stroke:none;fill-rule:nonzero;fill:rgb(17.647059%,56.078434%,100%);fill-opacity:1;" d="M 13.75 8.5 C 21.09375 8.5 28.433594 8.5 36 8.5 C 36 13.203125 36 17.90625 36 22.75 C 31.378906 22.75 26.761719 22.75 22 22.75 C 22 18 22 18 22.25 17.75 C 22.917969 17.726562 23.578125 17.722656 24.242188 17.726562 C 24.441406 17.726562 24.640625 17.726562 24.847656 17.726562 C 25.488281 17.726562 26.125 17.730469 26.765625 17.734375 C 27.199219 17.734375 27.628906 17.738281 28.0625 17.738281 C 29.125 17.742188 30.1875 17.746094 31.25 17.75 C 31.25 16.265625 31.25 14.78125 31.25 13.25 C 25.476562 13.25 19.699219 13.25 13.75 13.25 C 13.75 11.683594 13.75 10.113281 13.75 8.5 Z M 13.75 8.5 "/>
<path style=" stroke:none;fill-rule:nonzero;fill:rgb(17.647059%,56.078434%,100%);fill-opacity:1;" d="M 13.75 17.75 C 15.398438 17.75 17.050781 17.75 18.75 17.75 C 18.75 20.800781 18.75 23.855469 18.75 27 C 24.441406 27 30.136719 27 36 27 C 36 28.566406 36 30.136719 36 31.75 C 28.65625 31.75 21.316406 31.75 13.75 31.75 C 13.75 27.128906 13.75 22.511719 13.75 17.75 Z M 13.75 17.75 "/>
<path style=" stroke:none;fill-rule:nonzero;fill:rgb(29.803923%,32.549021%,40.392157%);fill-opacity:1;" d="M 33.75 39.75 C 34.410156 39.75 35.070312 39.75 35.75 39.75 C 35.835938 40.152344 35.835938 40.152344 35.921875 40.5625 C 36.292969 41.617188 36.519531 41.976562 37.5 42.5 C 38.363281 42.484375 38.964844 42.425781 39.703125 41.96875 C 40.140625 41.273438 40.304688 40.542969 40.5 39.75 C 41.242188 39.75 41.984375 39.75 42.75 39.75 C 42.792969 39.90625 42.835938 40.0625 42.878906 40.226562 C 42.941406 40.429688 43 40.632812 43.0625 40.84375 C 43.148438 41.148438 43.148438 41.148438 43.238281 41.460938 C 43.460938 42.027344 43.460938 42.027344 43.972656 42.324219 C 44.792969 42.597656 45.421875 42.445312 46.25 42.25 C 47.160156 41.683594 47.257812 40.742188 47.5 39.75 C 48.160156 39.75 48.820312 39.75 49.5 39.75 C 49.605469 41.273438 49.523438 42.035156 48.5 43.25 C 47.191406 44.433594 46.183594 44.582031 44.46875 44.574219 C 43.390625 44.460938 42.679688 44.042969 41.75 43.5 C 41.058594 43.5 40.792969 43.839844 40.25 44.25 C 38.839844 44.71875 37.308594 44.6875 35.90625 44.21875 C 34.976562 43.554688 34.265625 42.785156 33.75 41.75 C 33.714844 41.082031 33.738281 40.417969 33.75 39.75 Z M 33.75 39.75 "/>
<path style=" stroke:none;fill-rule:nonzero;fill:rgb(29.803923%,32.549021%,40.392157%);fill-opacity:1;" d="M 40.953125 35.5 C 41.214844 35.664062 41.480469 35.828125 41.75 36 C 41.898438 35.882812 42.050781 35.761719 42.203125 35.640625 C 43.527344 34.695312 45.191406 34.863281 46.75 35 C 47.859375 35.527344 48.605469 36.203125 49.25 37.25 C 49.398438 37.925781 49.453125 38.554688 49.5 39.25 C 48.839844 39.25 48.179688 39.25 47.5 39.25 C 47.402344 39.039062 47.402344 39.039062 47.296875 38.820312 C 47.210938 38.636719 47.121094 38.453125 47.03125 38.265625 C 46.945312 38.082031 46.855469 37.898438 46.765625 37.710938 C 46.53125 37.210938 46.53125 37.210938 46 37 C 45.121094 36.933594 44.472656 36.890625 43.671875 37.28125 C 43.128906 37.886719 42.957031 38.472656 42.75 39.25 C 42.007812 39.25 41.265625 39.25 40.5 39.25 C 40.390625 38.972656 40.285156 38.691406 40.171875 38.40625 C 39.824219 37.457031 39.824219 37.457031 39 37 C 38.027344 36.894531 37.476562 36.835938 36.671875 37.421875 C 36.238281 38.015625 35.980469 38.554688 35.75 39.25 C 35.089844 39.25 34.429688 39.25 33.75 39.25 C 33.589844 37.96875 33.925781 37.21875 34.632812 36.191406 C 36.085938 34.4375 39.042969 34.542969 40.953125 35.5 Z M 40.953125 35.5 "/>
<path style=" stroke:none;fill-rule:nonzero;fill:rgb(29.803923%,32.549021%,40.392157%);fill-opacity:1;" d="M 28.5 39.25 C 29.902344 39.25 31.304688 39.25 32.75 39.25 C 32.75 40.898438 32.75 42.550781 32.75 44.25 C 30.425781 44.714844 27.628906 44.9375 25.5 43.75 C 24.515625 42.765625 24.019531 41.816406 23.96875 40.421875 C 23.984375 40.089844 23.984375 40.089844 24 39.75 C 24.660156 39.75 25.320312 39.75 26 39.75 C 26.0625 39.90625 26.128906 40.0625 26.191406 40.226562 C 26.277344 40.429688 26.363281 40.632812 26.453125 40.84375 C 26.539062 41.046875 26.621094 41.25 26.707031 41.460938 C 26.984375 42.074219 26.984375 42.074219 27.75 42.5 C 28.710938 42.550781 29.578125 42.546875 30.5 42.25 C 30.417969 42.003906 30.335938 41.753906 30.25 41.5 C 29.753906 41.664062 29.261719 41.828125 28.75 42 C 28.5 41.25 28.5 41.25 28.5 39.25 Z M 28.5 39.25 "/>
<path style=" stroke:none;fill-rule:nonzero;fill:rgb(29.803923%,32.549021%,40.392157%);fill-opacity:1;" d="M 30.859375 35.296875 C 31.574219 35.800781 32.03125 36.261719 32.5 37 C 32.5 37.328125 32.5 37.660156 32.5 38 C 31.199219 38.285156 31.199219 38.285156 30.5 38.25 C 29.84375 37.640625 29.84375 37.640625 29.25 37 C 28.5 36.792969 28.5 36.792969 27.75 37 C 26.832031 37.734375 26.539062 38.097656 26.25 39.25 C 25.507812 39.25 24.765625 39.25 24 39.25 C 24.089844 37.785156 24.453125 36.804688 25.5 35.75 C 27.136719 34.734375 29.046875 34.671875 30.859375 35.296875 Z M 30.859375 35.296875 "/>
<path style=" stroke:none;fill-rule:nonzero;fill:rgb(29.803923%,32.549021%,40.392157%);fill-opacity:1;" d="M 15.75 37.25 C 16.410156 37.25 17.070312 37.25 17.75 37.25 C 17.75 37.664062 17.75 38.074219 17.75 38.5 C 19.234375 38.5 20.71875 38.5 22.25 38.5 C 22.25 39.078125 22.25 39.65625 22.25 40.25 C 20.765625 40.25 19.28125 40.25 17.75 40.25 C 17.75 40.828125 17.75 41.40625 17.75 42 C 17.089844 42 16.429688 42 15.75 42 C 15.75 40.433594 15.75 38.863281 15.75 37.25 Z M 15.75 37.25 "/>
<path style=" stroke:none;fill-rule:nonzero;fill:rgb(29.803923%,32.549021%,40.392157%);fill-opacity:1;" d="M 0.5 37.25 C 1.160156 37.25 1.820312 37.25 2.5 37.25 C 2.5 37.664062 2.5 38.074219 2.5 38.5 C 3.984375 38.5 5.46875 38.5 7 38.5 C 7 39.078125 7 39.65625 7 40.25 C 5.515625 40.25 4.03125 40.25 2.5 40.25 C 2.5 40.828125 2.5 41.40625 2.5 42 C 1.839844 42 1.179688 42 0.5 42 C 0.5 40.433594 0.5 38.863281 0.5 37.25 Z M 0.5 37.25 "/>
<path style=" stroke:none;fill-rule:nonzero;fill:rgb(29.803923%,32.549021%,40.392157%);fill-opacity:1;" d="M 18.941406 34.925781 C 19.164062 34.929688 19.386719 34.929688 19.617188 34.933594 C 19.84375 34.941406 20.074219 34.945312 20.3125 34.953125 C 20.546875 34.957031 20.78125 34.960938 21.023438 34.964844 C 21.597656 34.972656 22.171875 34.984375 22.75 35 C 22.75 35.578125 22.75 36.15625 22.75 36.75 C 20.605469 36.75 18.460938 36.75 16.25 36.75 C 16.914062 35.421875 17.4375 34.898438 18.941406 34.925781 Z M 18.941406 34.925781 "/>
<path style=" stroke:none;fill-rule:nonzero;fill:rgb(29.803923%,32.549021%,40.392157%);fill-opacity:1;" d="M 9.25 42.5 C 11.3125 42.5 13.375 42.5 15.5 42.5 C 15.5 43.078125 15.5 43.65625 15.5 44.25 C 14.644531 44.285156 13.792969 44.308594 12.9375 44.328125 C 12.695312 44.339844 12.453125 44.347656 12.203125 44.359375 C 10.40625 44.390625 10.40625 44.390625 9.582031 43.652344 C 9.25 43 9.25 43 9.25 42.5 Z M 9.25 42.5 "/>
<path style=" stroke:none;fill-rule:nonzero;fill:rgb(29.803923%,32.549021%,40.392157%);fill-opacity:1;" d="M 2.878906 34.800781 C 3.082031 34.808594 3.28125 34.820312 3.492188 34.828125 C 3.710938 34.835938 3.933594 34.839844 4.160156 34.847656 C 4.386719 34.859375 4.609375 34.875 4.84375 34.890625 C 5.074219 34.898438 5.308594 34.90625 5.546875 34.914062 C 6.113281 34.933594 6.683594 34.964844 7.25 35 C 7.25 35.578125 7.25 36.15625 7.25 36.75 C 5.105469 36.75 2.960938 36.75 0.75 36.75 C 2.25 35 2.25 35 2.878906 34.800781 Z M 2.878906 34.800781 "/>
<path style=" stroke:none;fill-rule:nonzero;fill:rgb(29.803923%,32.549021%,40.392157%);fill-opacity:1;" d="M 1 42.75 C 3.144531 42.75 5.289062 42.75 7.5 42.75 C 7.5 43.246094 7.5 43.738281 7.5 44.25 C 6.605469 44.292969 5.707031 44.320312 4.8125 44.34375 C 4.429688 44.363281 4.429688 44.363281 4.042969 44.382812 C 3.675781 44.390625 3.675781 44.390625 3.300781 44.398438 C 2.964844 44.410156 2.964844 44.410156 2.617188 44.421875 C 2 44.25 2 44.25 1 42.75 Z M 1 42.75 "/>
<path style=" stroke:none;fill-rule:nonzero;fill:rgb(29.803923%,32.549021%,40.392157%);fill-opacity:1;" d="M 16.25 42.75 C 18.394531 42.75 20.539062 42.75 22.75 42.75 C 22.75 43.246094 22.75 43.738281 22.75 44.25 C 21.902344 44.292969 21.050781 44.320312 20.203125 44.34375 C 19.964844 44.355469 19.722656 44.367188 19.476562 44.382812 C 19.242188 44.386719 19.011719 44.390625 18.769531 44.398438 C 18.449219 44.410156 18.449219 44.410156 18.125 44.421875 C 17.5 44.25 17.5 44.25 16.25 42.75 Z M 16.25 42.75 "/>
<path style=" stroke:none;fill-rule:nonzero;fill:rgb(29.803923%,32.549021%,40.392157%);fill-opacity:1;" d="M 8.75 35 C 9.410156 35 10.070312 35 10.75 35 C 10.75 36.238281 10.75 37.476562 10.75 38.75 C 10.089844 38.75 9.429688 38.75 8.75 38.75 C 8.75 37.511719 8.75 36.273438 8.75 35 Z M 8.75 35 "/>
<path style=" stroke:none;fill-rule:nonzero;fill:rgb(29.803923%,32.549021%,40.392157%);fill-opacity:1;" d="M 8.75 39.25 C 9.410156 39.25 10.070312 39.25 10.75 39.25 C 10.75 40.238281 10.75 41.230469 10.75 42.25 C 10.089844 42.25 9.429688 42.25 8.75 42.25 C 8.75 41.261719 8.75 40.269531 8.75 39.25 Z M 8.75 39.25 "/>
</g>
</svg>
