<?xml version="1.0" encoding="UTF-8"?>
<svg xmlns="http://www.w3.org/2000/svg" xmlns:xlink="http://www.w3.org/1999/xlink" width="54px" height="50px" viewBox="0 0 54 50" version="1.1">
<g id="surface1">
<path style=" stroke:none;fill-rule:nonzero;fill:rgb(46.27451%,62.352943%,20.784314%);fill-opacity:1;" d="M 28.898438 9.082031 C 28.910156 9.09375 28.925781 9.105469 28.941406 9.121094 C 28.960938 9.140625 28.960938 9.140625 28.984375 9.160156 C 29.027344 9.199219 29.070312 9.238281 29.113281 9.277344 C 29.125 9.289062 29.140625 9.300781 29.152344 9.3125 C 29.449219 9.59375 29.648438 9.964844 29.839844 10.324219 C 29.90625 10.453125 29.976562 10.578125 30.046875 10.703125 C 30.132812 10.851562 30.210938 11 30.289062 11.152344 C 30.347656 11.269531 30.410156 11.382812 30.476562 11.496094 C 30.566406 11.65625 30.65625 11.820312 30.742188 11.984375 C 30.75 11.996094 30.753906 12.011719 30.761719 12.023438 C 30.769531 12.035156 30.773438 12.046875 30.78125 12.058594 C 30.792969 12.082031 30.804688 12.105469 30.820312 12.128906 C 30.824219 12.140625 30.832031 12.152344 30.835938 12.164062 C 30.90625 12.296875 30.976562 12.425781 31.046875 12.554688 C 31.082031 12.621094 31.117188 12.6875 31.152344 12.75 C 31.246094 12.921875 31.335938 13.089844 31.433594 13.257812 C 31.535156 13.4375 31.632812 13.621094 31.726562 13.804688 C 31.808594 13.960938 31.890625 14.113281 31.976562 14.265625 C 32.082031 14.449219 32.179688 14.632812 32.277344 14.820312 C 32.289062 14.84375 32.300781 14.867188 32.316406 14.890625 C 32.320312 14.902344 32.328125 14.914062 32.332031 14.925781 C 32.402344 15.054688 32.472656 15.1875 32.542969 15.316406 C 32.578125 15.382812 32.613281 15.445312 32.648438 15.511719 C 32.742188 15.679688 32.832031 15.851562 32.929688 16.019531 C 33.03125 16.199219 33.128906 16.382812 33.222656 16.566406 C 33.304688 16.722656 33.386719 16.875 33.476562 17.027344 C 33.578125 17.207031 33.675781 17.394531 33.773438 17.578125 C 33.785156 17.601562 33.800781 17.625 33.8125 17.652344 C 33.816406 17.664062 33.824219 17.671875 33.832031 17.6875 C 33.898438 17.816406 33.96875 17.945312 34.042969 18.078125 C 34.078125 18.140625 34.113281 18.207031 34.148438 18.273438 C 34.238281 18.441406 34.328125 18.609375 34.425781 18.777344 C 34.527344 18.957031 34.625 19.140625 34.722656 19.328125 C 34.800781 19.480469 34.882812 19.636719 34.972656 19.789062 C 35.074219 19.96875 35.171875 20.152344 35.269531 20.339844 C 35.285156 20.363281 35.296875 20.386719 35.308594 20.410156 C 35.316406 20.421875 35.320312 20.433594 35.328125 20.445312 C 35.394531 20.578125 35.46875 20.707031 35.539062 20.835938 C 35.574219 20.902344 35.609375 20.96875 35.644531 21.03125 C 35.734375 21.203125 35.828125 21.371094 35.921875 21.539062 C 36.023438 21.71875 36.121094 21.902344 36.21875 22.085938 C 36.300781 22.242188 36.382812 22.394531 36.46875 22.546875 C 36.570312 22.730469 36.667969 22.914062 36.765625 23.101562 C 36.78125 23.125 36.792969 23.148438 36.804688 23.171875 C 36.8125 23.183594 36.816406 23.195312 36.824219 23.207031 C 36.894531 23.335938 36.964844 23.46875 37.035156 23.597656 C 37.070312 23.664062 37.105469 23.726562 37.140625 23.792969 C 37.230469 23.960938 37.324219 24.132812 37.417969 24.300781 C 37.519531 24.480469 37.617188 24.664062 37.714844 24.847656 C 37.796875 25 37.878906 25.15625 37.964844 25.308594 C 38.070312 25.488281 38.167969 25.675781 38.265625 25.859375 C 38.277344 25.882812 38.289062 25.90625 38.300781 25.929688 C 38.308594 25.941406 38.3125 25.953125 38.320312 25.964844 C 38.390625 26.097656 38.460938 26.226562 38.53125 26.359375 C 38.566406 26.421875 38.601562 26.488281 38.636719 26.550781 C 38.726562 26.722656 38.820312 26.890625 38.914062 27.058594 C 39.019531 27.238281 39.113281 27.421875 39.210938 27.605469 C 39.292969 27.761719 39.375 27.917969 39.460938 28.066406 C 39.566406 28.25 39.664062 28.433594 39.761719 28.621094 C 39.773438 28.644531 39.785156 28.667969 39.796875 28.691406 C 39.804688 28.703125 39.808594 28.714844 39.816406 28.726562 C 39.886719 28.859375 39.957031 28.988281 40.027344 29.117188 C 40.0625 29.183594 40.097656 29.246094 40.132812 29.3125 C 40.222656 29.484375 40.316406 29.652344 40.410156 29.820312 C 40.515625 30 40.609375 30.183594 40.707031 30.367188 C 40.789062 30.523438 40.871094 30.675781 40.957031 30.828125 C 41.0625 31.011719 41.160156 31.195312 41.257812 31.378906 C 41.269531 31.40625 41.28125 31.429688 41.292969 31.453125 C 41.300781 31.464844 41.308594 31.476562 41.3125 31.488281 C 41.382812 31.617188 41.453125 31.75 41.523438 31.878906 C 41.558594 31.941406 41.59375 32.007812 41.628906 32.074219 C 41.722656 32.242188 41.8125 32.414062 41.910156 32.578125 C 42.011719 32.761719 42.109375 32.945312 42.203125 33.128906 C 42.285156 33.28125 42.367188 33.4375 42.453125 33.589844 C 42.558594 33.769531 42.65625 33.957031 42.753906 34.140625 C 42.765625 34.164062 42.777344 34.1875 42.792969 34.210938 C 42.796875 34.222656 42.804688 34.234375 42.808594 34.246094 C 42.878906 34.378906 42.949219 34.507812 43.019531 34.640625 C 43.054688 34.703125 43.089844 34.769531 43.125 34.832031 C 43.21875 35.003906 43.308594 35.171875 43.40625 35.339844 C 43.507812 35.519531 43.605469 35.703125 43.699219 35.886719 C 43.78125 36.042969 43.863281 36.195312 43.949219 36.347656 C 44.054688 36.53125 44.152344 36.714844 44.25 36.902344 C 44.261719 36.925781 44.277344 36.949219 44.289062 36.972656 C 44.292969 36.984375 44.300781 36.996094 44.304688 37.007812 C 44.375 37.140625 44.445312 37.269531 44.519531 37.398438 C 44.554688 37.464844 44.589844 37.527344 44.621094 37.59375 C 44.714844 37.765625 44.804688 37.933594 44.902344 38.101562 C 45.011719 38.296875 45.117188 38.496094 45.222656 38.695312 C 45.234375 38.71875 45.246094 38.742188 45.257812 38.765625 C 45.265625 38.777344 45.273438 38.789062 45.277344 38.800781 C 45.320312 38.882812 45.363281 38.960938 45.410156 39.039062 C 45.628906 39.421875 45.691406 39.875 45.59375 40.308594 C 45.472656 40.757812 45.21875 41.136719 44.8125 41.375 C 44.558594 41.519531 44.292969 41.589844 44 41.589844 C 43.980469 41.589844 43.960938 41.589844 43.941406 41.589844 C 43.644531 41.589844 43.375 41.480469 43.105469 41.367188 C 43.039062 41.335938 42.96875 41.308594 42.898438 41.277344 C 42.863281 41.261719 42.824219 41.246094 42.789062 41.230469 C 42.59375 41.148438 42.402344 41.070312 42.207031 40.992188 C 42.105469 40.949219 42.007812 40.910156 41.90625 40.871094 C 41.886719 40.859375 41.871094 40.851562 41.847656 40.84375 C 41.660156 40.769531 41.472656 40.691406 41.285156 40.613281 C 41.269531 40.609375 41.253906 40.601562 41.238281 40.59375 C 41.175781 40.570312 41.113281 40.542969 41.054688 40.519531 C 40.941406 40.472656 40.832031 40.425781 40.71875 40.382812 C 40.402344 40.25 40.085938 40.121094 39.765625 39.988281 C 39.445312 39.855469 39.121094 39.726562 38.800781 39.59375 C 38.65625 39.535156 38.511719 39.472656 38.367188 39.414062 C 38.289062 39.382812 38.207031 39.351562 38.128906 39.316406 C 38.097656 39.304688 38.066406 39.289062 38.03125 39.277344 C 38.015625 39.269531 38 39.265625 37.984375 39.257812 C 37.074219 38.882812 37.074219 38.882812 37.027344 38.863281 C 36.996094 38.851562 36.964844 38.839844 36.933594 38.824219 C 36.851562 38.792969 36.773438 38.761719 36.695312 38.726562 C 36.550781 38.667969 36.40625 38.609375 36.261719 38.550781 C 35.925781 38.414062 35.59375 38.277344 35.257812 38.136719 C 34.9375 38.003906 34.613281 37.871094 34.292969 37.742188 C 34.148438 37.679688 34.003906 37.621094 33.859375 37.5625 C 33.78125 37.53125 33.703125 37.496094 33.621094 37.464844 C 33.589844 37.453125 33.558594 37.4375 33.527344 37.425781 C 33.511719 37.417969 33.496094 37.414062 33.476562 37.40625 C 33.335938 37.347656 33.335938 37.347656 33.285156 37.328125 C 33.253906 37.3125 33.222656 37.300781 33.191406 37.289062 C 33.109375 37.253906 33.03125 37.222656 32.953125 37.191406 C 32.808594 37.128906 32.664062 37.070312 32.519531 37.011719 C 32.210938 36.886719 31.90625 36.761719 31.601562 36.636719 C 31.265625 36.496094 30.933594 36.359375 30.597656 36.222656 C 30.503906 36.183594 30.40625 36.144531 30.3125 36.105469 C 29.25 35.664062 28.167969 35.371094 27.011719 35.375 C 26.992188 35.375 26.992188 35.375 26.972656 35.375 C 25.8125 35.375 24.738281 35.664062 23.675781 36.109375 C 23.4375 36.210938 23.195312 36.308594 22.957031 36.40625 C 22.898438 36.433594 22.835938 36.457031 22.777344 36.480469 C 22.734375 36.496094 22.695312 36.511719 22.65625 36.53125 C 22.46875 36.605469 22.277344 36.683594 22.089844 36.761719 C 22.066406 36.769531 22.066406 36.769531 22.042969 36.78125 C 21.964844 36.8125 21.886719 36.84375 21.8125 36.875 C 21.667969 36.933594 21.527344 36.992188 21.382812 37.050781 C 21.335938 37.070312 21.289062 37.089844 21.238281 37.109375 C 21.09375 37.171875 20.953125 37.230469 20.808594 37.289062 C 20.488281 37.421875 20.167969 37.550781 19.847656 37.683594 C 19.511719 37.820312 19.175781 37.960938 18.839844 38.097656 C 18.695312 38.15625 18.550781 38.214844 18.40625 38.273438 C 18.328125 38.308594 18.246094 38.339844 18.167969 38.375 C 18.136719 38.386719 18.105469 38.398438 18.074219 38.414062 C 18.007812 38.4375 17.945312 38.464844 17.882812 38.492188 C 17.867188 38.496094 17.847656 38.503906 17.832031 38.511719 C 17.800781 38.523438 17.769531 38.539062 17.738281 38.550781 C 17.65625 38.582031 17.578125 38.617188 17.5 38.648438 C 17.355469 38.707031 17.210938 38.765625 17.066406 38.828125 C 16.746094 38.957031 16.425781 39.089844 16.105469 39.222656 C 15.769531 39.359375 15.433594 39.496094 15.097656 39.636719 C 14.953125 39.695312 14.808594 39.753906 14.664062 39.8125 C 14.585938 39.84375 14.507812 39.878906 14.425781 39.910156 C 14.394531 39.925781 14.363281 39.9375 14.332031 39.949219 C 14.011719 40.082031 13.691406 40.210938 13.375 40.34375 C 13.351562 40.351562 13.351562 40.351562 13.324219 40.363281 C 13.292969 40.375 13.261719 40.390625 13.230469 40.402344 C 13.152344 40.433594 13.070312 40.46875 12.992188 40.5 C 12.847656 40.558594 12.703125 40.617188 12.558594 40.679688 C 12.492188 40.703125 12.429688 40.730469 12.363281 40.757812 C 12.332031 40.769531 12.300781 40.785156 12.265625 40.796875 C 12.085938 40.871094 11.902344 40.945312 11.722656 41.023438 C 11.613281 41.066406 11.5 41.113281 11.390625 41.160156 C 11.296875 41.195312 11.207031 41.234375 11.113281 41.273438 C 11.046875 41.300781 10.984375 41.328125 10.917969 41.355469 C 10.886719 41.367188 10.855469 41.378906 10.824219 41.394531 C 10.550781 41.507812 10.304688 41.59375 10.007812 41.589844 C 9.984375 41.585938 9.964844 41.585938 9.941406 41.585938 C 9.78125 41.582031 9.636719 41.566406 9.484375 41.507812 C 9.457031 41.5 9.457031 41.5 9.429688 41.488281 C 9.019531 41.332031 8.703125 41.035156 8.523438 40.636719 C 8.328125 40.1875 8.320312 39.722656 8.484375 39.265625 C 8.523438 39.167969 8.574219 39.074219 8.621094 38.976562 C 8.632812 38.957031 8.644531 38.9375 8.65625 38.914062 C 8.734375 38.769531 8.8125 38.621094 8.898438 38.476562 C 8.960938 38.363281 9.023438 38.246094 9.085938 38.128906 C 9.152344 37.996094 9.222656 37.867188 9.296875 37.738281 C 9.386719 37.574219 9.476562 37.410156 9.5625 37.246094 C 9.570312 37.234375 9.578125 37.222656 9.582031 37.210938 C 9.589844 37.195312 9.59375 37.183594 9.601562 37.171875 C 9.613281 37.148438 9.628906 37.125 9.640625 37.101562 C 9.648438 37.085938 9.648438 37.085938 9.660156 37.066406 C 9.726562 36.933594 9.796875 36.804688 9.871094 36.675781 C 9.90625 36.609375 9.941406 36.546875 9.972656 36.480469 C 10.066406 36.304688 10.164062 36.132812 10.261719 35.960938 C 10.34375 35.8125 10.425781 35.664062 10.503906 35.511719 C 10.5625 35.394531 10.625 35.28125 10.6875 35.167969 C 10.78125 35.007812 10.867188 34.84375 10.957031 34.675781 C 10.960938 34.664062 10.96875 34.652344 10.976562 34.640625 C 10.980469 34.628906 10.988281 34.617188 10.996094 34.605469 C 11.007812 34.582031 11.019531 34.558594 11.03125 34.535156 C 11.039062 34.523438 11.042969 34.511719 11.050781 34.5 C 11.121094 34.367188 11.191406 34.238281 11.261719 34.105469 C 11.296875 34.042969 11.332031 33.976562 11.367188 33.910156 C 11.457031 33.742188 11.550781 33.574219 11.644531 33.40625 C 11.75 33.226562 11.84375 33.042969 11.941406 32.859375 C 12.023438 32.703125 12.105469 32.546875 12.191406 32.398438 C 12.296875 32.214844 12.394531 32.03125 12.492188 31.84375 C 12.503906 31.820312 12.515625 31.796875 12.527344 31.773438 C 12.535156 31.761719 12.539062 31.75 12.546875 31.738281 C 12.617188 31.605469 12.6875 31.476562 12.757812 31.347656 C 12.792969 31.28125 12.828125 31.21875 12.863281 31.152344 C 12.953125 30.980469 13.046875 30.8125 13.140625 30.644531 C 13.246094 30.464844 13.339844 30.28125 13.4375 30.097656 C 13.519531 29.941406 13.601562 29.789062 13.6875 29.636719 C 13.792969 29.453125 13.890625 29.269531 13.988281 29.085938 C 14 29.058594 14.011719 29.035156 14.023438 29.011719 C 14.03125 29 14.039062 28.988281 14.042969 28.976562 C 14.113281 28.847656 14.183594 28.714844 14.253906 28.585938 C 14.289062 28.519531 14.324219 28.457031 14.359375 28.390625 C 14.453125 28.222656 14.542969 28.050781 14.640625 27.886719 C 14.742188 27.703125 14.839844 27.519531 14.933594 27.335938 C 15.015625 27.183594 15.097656 27.027344 15.183594 26.875 C 15.289062 26.695312 15.386719 26.507812 15.484375 26.324219 C 15.496094 26.300781 15.507812 26.277344 15.523438 26.253906 C 15.53125 26.234375 15.53125 26.234375 15.539062 26.21875 C 15.609375 26.085938 15.679688 25.957031 15.75 25.824219 C 15.785156 25.761719 15.820312 25.695312 15.855469 25.632812 C 15.949219 25.460938 16.039062 25.292969 16.136719 25.125 C 16.238281 24.945312 16.335938 24.761719 16.429688 24.578125 C 16.511719 24.421875 16.59375 24.265625 16.679688 24.117188 C 16.785156 23.933594 16.882812 23.75 16.980469 23.5625 C 16.992188 23.539062 17.003906 23.515625 17.019531 23.492188 C 17.027344 23.476562 17.027344 23.476562 17.035156 23.457031 C 17.105469 23.324219 17.175781 23.195312 17.246094 23.066406 C 17.285156 23 17.316406 22.9375 17.351562 22.871094 C 17.445312 22.699219 17.535156 22.53125 17.632812 22.363281 C 17.734375 22.183594 17.832031 22 17.925781 21.816406 C 18.015625 21.644531 18.109375 21.476562 18.203125 21.308594 C 18.292969 21.15625 18.375 20.996094 18.457031 20.839844 C 18.546875 20.671875 18.636719 20.503906 18.730469 20.339844 C 18.796875 20.226562 18.855469 20.109375 18.917969 19.996094 C 18.984375 19.863281 19.054688 19.730469 19.128906 19.601562 C 19.222656 19.441406 19.308594 19.277344 19.394531 19.113281 C 19.402344 19.097656 19.410156 19.085938 19.414062 19.074219 C 19.425781 19.058594 19.425781 19.058594 19.433594 19.039062 C 19.445312 19.015625 19.460938 18.992188 19.472656 18.96875 C 19.476562 18.957031 19.484375 18.945312 19.492188 18.933594 C 19.558594 18.800781 19.628906 18.671875 19.703125 18.539062 C 19.738281 18.476562 19.773438 18.410156 19.808594 18.347656 C 19.898438 18.171875 19.996094 18 20.09375 17.828125 C 20.175781 17.679688 20.257812 17.527344 20.335938 17.375 C 20.394531 17.261719 20.457031 17.148438 20.519531 17.035156 C 20.613281 16.871094 20.703125 16.707031 20.789062 16.542969 C 20.792969 16.53125 20.800781 16.519531 20.808594 16.507812 C 20.8125 16.496094 20.820312 16.484375 20.828125 16.46875 C 20.839844 16.445312 20.851562 16.421875 20.863281 16.398438 C 20.871094 16.386719 20.875 16.375 20.882812 16.363281 C 20.953125 16.234375 21.023438 16.101562 21.09375 15.972656 C 21.128906 15.90625 21.164062 15.84375 21.199219 15.777344 C 21.289062 15.609375 21.382812 15.4375 21.476562 15.269531 C 21.582031 15.089844 21.675781 14.90625 21.773438 14.722656 C 21.855469 14.566406 21.9375 14.414062 22.023438 14.261719 C 22.128906 14.082031 22.226562 13.894531 22.324219 13.710938 C 22.335938 13.6875 22.347656 13.664062 22.359375 13.640625 C 22.367188 13.628906 22.375 13.617188 22.378906 13.605469 C 22.449219 13.472656 22.519531 13.34375 22.589844 13.210938 C 22.625 13.148438 22.660156 13.082031 22.695312 13.019531 C 22.785156 12.847656 22.878906 12.679688 22.972656 12.511719 C 23.078125 12.332031 23.175781 12.148438 23.269531 11.964844 C 23.351562 11.808594 23.433594 11.652344 23.519531 11.503906 C 23.609375 11.34375 23.695312 11.183594 23.78125 11.023438 C 23.789062 11.011719 23.792969 11 23.800781 10.984375 C 23.808594 10.972656 23.8125 10.960938 23.820312 10.949219 C 23.832031 10.925781 23.84375 10.902344 23.859375 10.878906 C 23.863281 10.867188 23.871094 10.855469 23.875 10.84375 C 23.953125 10.699219 24.03125 10.554688 24.109375 10.410156 C 24.140625 10.355469 24.171875 10.296875 24.199219 10.242188 C 24.371094 9.925781 24.554688 9.628906 24.796875 9.363281 C 24.808594 9.351562 24.808594 9.351562 24.824219 9.335938 C 25.035156 9.105469 25.289062 8.921875 25.5625 8.769531 C 25.574219 8.765625 25.585938 8.757812 25.597656 8.753906 C 26.621094 8.175781 28.003906 8.316406 28.898438 9.082031 Z M 26.175781 16.941406 C 26.074219 17.050781 26 17.167969 25.933594 17.300781 C 25.921875 17.324219 25.910156 17.351562 25.898438 17.375 C 25.890625 17.394531 25.890625 17.394531 25.878906 17.414062 C 25.847656 17.476562 25.816406 17.539062 25.785156 17.605469 C 25.773438 17.628906 25.757812 17.65625 25.746094 17.679688 C 25.726562 17.71875 25.707031 17.757812 25.6875 17.796875 C 25.601562 17.972656 25.515625 18.148438 25.429688 18.328125 C 25.34375 18.503906 25.257812 18.683594 25.171875 18.863281 C 25.125 18.960938 25.074219 19.058594 25.027344 19.15625 C 25.019531 19.175781 25.007812 19.191406 25 19.214844 C 24.925781 19.367188 24.851562 19.519531 24.777344 19.671875 C 24.675781 19.882812 24.574219 20.09375 24.472656 20.300781 C 24.464844 20.316406 24.457031 20.332031 24.449219 20.347656 C 24.417969 20.410156 24.390625 20.46875 24.359375 20.53125 C 24.28125 20.691406 24.203125 20.851562 24.128906 21.011719 C 24.121094 21.023438 24.113281 21.039062 24.105469 21.050781 C 24.074219 21.125 24.039062 21.195312 24.003906 21.265625 C 23.941406 21.390625 23.878906 21.519531 23.820312 21.648438 C 23.785156 21.71875 23.75 21.789062 23.714844 21.859375 C 23.703125 21.886719 23.6875 21.917969 23.675781 21.945312 C 23.664062 21.964844 23.664062 21.964844 23.652344 21.988281 C 23.589844 22.113281 23.589844 22.113281 23.570312 22.15625 C 23.558594 22.1875 23.542969 22.214844 23.527344 22.242188 C 23.496094 22.3125 23.460938 22.386719 23.425781 22.457031 C 23.363281 22.582031 23.300781 22.710938 23.242188 22.839844 C 23.085938 23.15625 22.929688 23.476562 22.773438 23.796875 C 22.628906 24.097656 22.480469 24.402344 22.332031 24.707031 C 22.273438 24.832031 22.210938 24.960938 22.148438 25.089844 C 22.113281 25.160156 22.078125 25.230469 22.042969 25.300781 C 22.03125 25.328125 22.015625 25.359375 22.003906 25.386719 C 21.992188 25.40625 21.992188 25.40625 21.984375 25.429688 C 21.257812 26.917969 21.257812 26.917969 21.238281 26.960938 C 21.226562 26.992188 21.210938 27.019531 21.199219 27.046875 C 21.164062 27.117188 21.128906 27.1875 21.09375 27.261719 C 21.03125 27.386719 20.96875 27.515625 20.910156 27.640625 C 20.753906 27.960938 20.597656 28.28125 20.445312 28.601562 C 20.363281 28.761719 20.285156 28.925781 20.207031 29.085938 C 20.199219 29.101562 20.195312 29.113281 20.1875 29.128906 C 20.152344 29.199219 20.117188 29.269531 20.085938 29.339844 C 20.015625 29.484375 19.945312 29.628906 19.875 29.773438 C 19.691406 30.148438 19.691406 30.148438 19.515625 30.523438 C 19.507812 30.539062 19.5 30.558594 19.492188 30.574219 C 19.410156 30.757812 19.390625 30.945312 19.449219 31.140625 C 19.484375 31.230469 19.53125 31.304688 19.59375 31.375 C 19.605469 31.386719 19.613281 31.398438 19.621094 31.410156 C 19.738281 31.539062 19.894531 31.605469 20.066406 31.621094 C 20.285156 31.625 20.460938 31.519531 20.648438 31.414062 C 20.671875 31.402344 20.691406 31.390625 20.710938 31.378906 C 20.863281 31.292969 21.011719 31.207031 21.160156 31.121094 C 21.3125 31.03125 21.464844 30.945312 21.617188 30.859375 C 21.78125 30.769531 21.941406 30.675781 22.105469 30.582031 C 22.199219 30.527344 22.292969 30.476562 22.390625 30.421875 C 22.429688 30.394531 22.472656 30.371094 22.515625 30.347656 C 22.523438 30.34375 22.535156 30.335938 22.546875 30.332031 C 22.609375 30.292969 22.671875 30.257812 22.734375 30.222656 C 22.785156 30.191406 22.835938 30.164062 22.886719 30.132812 C 22.898438 30.128906 22.90625 30.121094 22.917969 30.117188 C 23.0625 30.035156 23.207031 29.953125 23.351562 29.871094 C 23.492188 29.792969 23.628906 29.710938 23.769531 29.628906 C 23.960938 29.519531 24.152344 29.410156 24.34375 29.304688 C 24.417969 29.265625 24.488281 29.222656 24.5625 29.179688 C 25.269531 28.769531 26.054688 28.558594 26.871094 28.527344 C 26.890625 28.527344 26.910156 28.527344 26.929688 28.527344 C 27.972656 28.507812 28.90625 28.855469 29.789062 29.378906 C 29.921875 29.457031 30.054688 29.53125 30.1875 29.605469 C 30.371094 29.707031 30.554688 29.8125 30.734375 29.914062 C 30.832031 29.96875 30.925781 30.023438 31.019531 30.078125 C 31.0625 30.101562 31.105469 30.128906 31.144531 30.152344 C 31.15625 30.15625 31.167969 30.164062 31.175781 30.167969 C 31.242188 30.207031 31.304688 30.242188 31.367188 30.277344 C 31.417969 30.308594 31.46875 30.335938 31.519531 30.367188 C 31.53125 30.371094 31.539062 30.378906 31.550781 30.382812 C 31.691406 30.464844 31.835938 30.546875 31.980469 30.628906 C 32.140625 30.714844 32.296875 30.808594 32.453125 30.898438 C 32.601562 30.988281 32.753906 31.070312 32.90625 31.15625 C 33.058594 31.242188 33.210938 31.328125 33.359375 31.417969 C 33.582031 31.550781 33.773438 31.65625 34.039062 31.605469 C 34.226562 31.546875 34.386719 31.441406 34.488281 31.269531 C 34.550781 31.148438 34.582031 31.054688 34.585938 30.914062 C 34.585938 30.894531 34.585938 30.871094 34.589844 30.847656 C 34.574219 30.625 34.441406 30.410156 34.339844 30.214844 C 34.316406 30.164062 34.289062 30.113281 34.261719 30.058594 C 34.257812 30.046875 34.25 30.035156 34.242188 30.019531 C 34.179688 29.894531 34.121094 29.773438 34.0625 29.648438 C 33.976562 29.46875 33.890625 29.289062 33.800781 29.113281 C 33.753906 29.015625 33.707031 28.917969 33.660156 28.820312 C 33.648438 28.800781 33.640625 28.78125 33.632812 28.761719 C 33.554688 28.605469 33.480469 28.453125 33.40625 28.300781 C 33.304688 28.089844 33.203125 27.878906 33.101562 27.671875 C 33.09375 27.65625 33.089844 27.640625 33.082031 27.625 C 33.050781 27.5625 33.019531 27.503906 32.992188 27.441406 C 32.914062 27.28125 32.835938 27.121094 32.757812 26.964844 C 32.753906 26.949219 32.746094 26.933594 32.738281 26.921875 C 32.703125 26.851562 32.671875 26.78125 32.636719 26.710938 C 32.574219 26.582031 32.511719 26.453125 32.449219 26.328125 C 32.414062 26.253906 32.382812 26.183594 32.347656 26.113281 C 32.332031 26.085938 32.320312 26.058594 32.304688 26.027344 C 32.277344 25.972656 32.25 25.914062 32.222656 25.859375 C 32.214844 25.84375 32.210938 25.832031 32.203125 25.816406 C 32.1875 25.789062 32.175781 25.757812 32.160156 25.730469 C 32.125 25.660156 32.09375 25.589844 32.058594 25.515625 C 31.996094 25.390625 31.933594 25.261719 31.871094 25.136719 C 31.722656 24.832031 31.578125 24.527344 31.429688 24.222656 C 31.273438 23.90625 31.121094 23.585938 30.964844 23.269531 C 30.902344 23.140625 30.839844 23.011719 30.78125 22.886719 C 30.746094 22.8125 30.710938 22.742188 30.675781 22.671875 C 30.664062 22.644531 30.648438 22.617188 30.636719 22.585938 C 30.386719 22.074219 30.140625 21.566406 29.890625 21.054688 C 29.882812 21.039062 29.878906 21.027344 29.871094 21.011719 C 29.855469 20.984375 29.84375 20.953125 29.828125 20.925781 C 29.792969 20.855469 29.761719 20.785156 29.726562 20.714844 C 29.664062 20.585938 29.601562 20.457031 29.539062 20.332031 C 29.390625 20.027344 29.246094 19.722656 29.097656 19.417969 C 28.96875 19.15625 28.84375 18.894531 28.714844 18.632812 C 28.703125 18.605469 28.6875 18.578125 28.675781 18.546875 C 28.667969 18.535156 28.660156 18.519531 28.65625 18.507812 C 28.613281 18.417969 28.570312 18.332031 28.527344 18.246094 C 28.507812 18.203125 28.484375 18.15625 28.464844 18.113281 C 28.433594 18.054688 28.40625 17.996094 28.378906 17.9375 C 28.316406 17.8125 28.253906 17.683594 28.195312 17.554688 C 28.183594 17.535156 28.175781 17.511719 28.164062 17.492188 C 28.148438 17.453125 28.128906 17.414062 28.109375 17.375 C 28.050781 17.25 27.980469 17.144531 27.894531 17.035156 C 27.882812 17.015625 27.882812 17.015625 27.871094 16.996094 C 27.699219 16.777344 27.410156 16.644531 27.140625 16.605469 C 26.777344 16.570312 26.441406 16.691406 26.175781 16.941406 Z M 26.175781 16.941406 "/>
<path style=" stroke:none;fill-rule:nonzero;fill:rgb(9.803922%,46.27451%,21.960784%);fill-opacity:1;" d="M 27.53125 10.988281 C 27.59375 11.039062 27.648438 11.089844 27.703125 11.144531 C 27.714844 11.15625 27.726562 11.167969 27.738281 11.179688 C 27.941406 11.390625 28.019531 11.714844 28.113281 11.988281 C 28.136719 12.046875 28.15625 12.105469 28.175781 12.164062 C 28.1875 12.1875 28.195312 12.214844 28.203125 12.238281 C 28.207031 12.25 28.210938 12.261719 28.214844 12.273438 C 28.230469 12.308594 28.242188 12.347656 28.253906 12.382812 C 28.335938 12.613281 28.417969 12.839844 28.503906 13.070312 C 28.53125 13.144531 28.558594 13.21875 28.585938 13.292969 C 28.589844 13.308594 28.597656 13.328125 28.605469 13.347656 C 28.664062 13.511719 28.726562 13.679688 28.785156 13.84375 C 28.886719 14.128906 28.992188 14.417969 29.097656 14.703125 C 29.207031 15 29.316406 15.300781 29.425781 15.601562 C 29.488281 15.78125 29.554688 15.960938 29.621094 16.140625 C 29.636719 16.179688 29.648438 16.222656 29.664062 16.261719 C 29.6875 16.324219 29.707031 16.382812 29.730469 16.441406 C 29.859375 16.796875 29.859375 16.796875 29.910156 16.949219 C 29.941406 17.042969 29.976562 17.136719 30.015625 17.226562 C 30.054688 17.320312 30.089844 17.421875 30.125 17.519531 C 30.132812 17.539062 30.140625 17.5625 30.148438 17.585938 C 30.191406 17.714844 30.238281 17.847656 30.28125 17.980469 C 30.308594 18.054688 30.335938 18.132812 30.367188 18.207031 C 30.410156 18.316406 30.449219 18.425781 30.484375 18.539062 C 30.5 18.585938 30.515625 18.632812 30.535156 18.679688 C 30.59375 18.820312 30.640625 18.957031 30.691406 19.097656 C 30.703125 19.128906 30.714844 19.160156 30.726562 19.195312 C 30.789062 19.359375 30.847656 19.527344 30.90625 19.691406 C 30.914062 19.707031 30.917969 19.722656 30.925781 19.742188 C 30.949219 19.808594 30.972656 19.875 30.996094 19.941406 C 31.101562 20.226562 31.203125 20.515625 31.308594 20.800781 C 31.441406 21.160156 31.574219 21.519531 31.703125 21.878906 C 31.832031 22.238281 31.960938 22.59375 32.089844 22.953125 C 32.203125 23.257812 32.3125 23.558594 32.421875 23.867188 C 32.527344 24.15625 32.632812 24.445312 32.738281 24.734375 C 32.867188 25.085938 32.996094 25.433594 33.121094 25.785156 C 33.242188 26.121094 33.363281 26.457031 33.484375 26.792969 C 33.59375 27.085938 33.699219 27.378906 33.804688 27.671875 C 33.921875 28.003906 34.042969 28.332031 34.164062 28.660156 C 34.242188 28.871094 34.316406 29.082031 34.394531 29.296875 C 34.398438 29.308594 34.402344 29.320312 34.40625 29.328125 C 34.441406 29.429688 34.476562 29.53125 34.515625 29.628906 C 34.609375 29.890625 34.703125 30.152344 34.804688 30.414062 C 34.867188 30.574219 34.898438 30.71875 34.898438 30.894531 C 34.898438 30.910156 34.898438 30.925781 34.898438 30.941406 C 34.890625 31.21875 34.785156 31.457031 34.597656 31.65625 C 34.386719 31.859375 34.140625 31.941406 33.855469 31.941406 C 33.496094 31.933594 33.222656 31.707031 32.9375 31.511719 C 32.875 31.46875 32.808594 31.421875 32.746094 31.378906 C 32.730469 31.367188 32.714844 31.359375 32.695312 31.347656 C 32.578125 31.265625 32.460938 31.1875 32.339844 31.109375 C 32.195312 31.019531 32.050781 30.921875 31.910156 30.828125 C 31.894531 30.816406 31.875 30.808594 31.859375 30.796875 C 31.597656 30.621094 31.339844 30.449219 31.078125 30.269531 C 30.800781 30.082031 30.523438 29.898438 30.242188 29.714844 C 30.0625 29.59375 29.882812 29.472656 29.707031 29.351562 C 29.71875 29.34375 29.730469 29.339844 29.742188 29.332031 C 29.777344 29.347656 29.777344 29.347656 29.824219 29.375 C 29.84375 29.386719 29.859375 29.394531 29.878906 29.40625 C 29.894531 29.417969 29.914062 29.425781 29.933594 29.4375 C 29.953125 29.449219 29.972656 29.460938 29.992188 29.472656 C 30.140625 29.554688 30.289062 29.640625 30.433594 29.730469 C 30.585938 29.816406 30.734375 29.902344 30.886719 29.984375 C 31.035156 30.066406 31.179688 30.152344 31.324219 30.238281 C 31.453125 30.3125 31.585938 30.386719 31.714844 30.460938 C 31.882812 30.550781 32.050781 30.648438 32.214844 30.746094 C 32.355469 30.828125 32.496094 30.90625 32.640625 30.988281 C 32.765625 31.058594 32.890625 31.128906 33.011719 31.203125 C 33.15625 31.285156 33.300781 31.371094 33.441406 31.449219 C 33.460938 31.460938 33.476562 31.46875 33.492188 31.476562 C 33.667969 31.574219 33.84375 31.628906 34.039062 31.585938 C 34.214844 31.53125 34.375 31.433594 34.46875 31.273438 C 34.535156 31.148438 34.5625 31.054688 34.566406 30.914062 C 34.570312 30.894531 34.570312 30.871094 34.570312 30.847656 C 34.558594 30.625 34.421875 30.410156 34.324219 30.214844 C 34.296875 30.164062 34.273438 30.113281 34.246094 30.058594 C 34.238281 30.046875 34.230469 30.035156 34.226562 30.019531 C 34.164062 29.894531 34.101562 29.773438 34.042969 29.648438 C 33.960938 29.46875 33.871094 29.289062 33.785156 29.113281 C 33.738281 29.015625 33.691406 28.917969 33.640625 28.820312 C 33.632812 28.800781 33.625 28.78125 33.613281 28.761719 C 33.539062 28.605469 33.464844 28.453125 33.390625 28.300781 C 33.289062 28.089844 33.1875 27.878906 33.085938 27.671875 C 33.078125 27.65625 33.070312 27.640625 33.0625 27.625 C 33.035156 27.5625 33.003906 27.503906 32.972656 27.441406 C 32.898438 27.28125 32.820312 27.121094 32.742188 26.964844 C 32.734375 26.949219 32.726562 26.933594 32.722656 26.921875 C 32.6875 26.851562 32.652344 26.78125 32.617188 26.710938 C 32.558594 26.582031 32.496094 26.453125 32.433594 26.328125 C 32.398438 26.253906 32.363281 26.183594 32.328125 26.113281 C 32.316406 26.085938 32.300781 26.058594 32.289062 26.027344 C 32.261719 25.972656 32.234375 25.914062 32.207031 25.859375 C 32.199219 25.84375 32.191406 25.832031 32.183594 25.816406 C 32.171875 25.789062 32.15625 25.757812 32.144531 25.730469 C 32.109375 25.660156 32.074219 25.589844 32.039062 25.515625 C 31.976562 25.390625 31.917969 25.261719 31.855469 25.136719 C 31.707031 24.832031 31.558594 24.527344 31.410156 24.222656 C 31.257812 23.90625 31.101562 23.585938 30.949219 23.269531 C 30.886719 23.140625 30.824219 23.011719 30.761719 22.886719 C 30.726562 22.8125 30.691406 22.742188 30.660156 22.671875 C 30.644531 22.644531 30.632812 22.617188 30.617188 22.585938 C 30.371094 22.074219 30.121094 21.566406 29.875 21.054688 C 29.867188 21.039062 29.859375 21.027344 29.851562 21.011719 C 29.839844 20.984375 29.824219 20.953125 29.8125 20.925781 C 29.777344 20.855469 29.742188 20.785156 29.707031 20.714844 C 29.644531 20.585938 29.585938 20.457031 29.523438 20.332031 C 29.375 20.027344 29.226562 19.722656 29.078125 19.417969 C 28.953125 19.15625 28.824219 18.894531 28.699219 18.632812 C 28.683594 18.605469 28.671875 18.578125 28.65625 18.546875 C 28.652344 18.535156 28.644531 18.519531 28.636719 18.507812 C 28.59375 18.417969 28.550781 18.332031 28.511719 18.246094 C 28.488281 18.203125 28.46875 18.15625 28.445312 18.113281 C 28.417969 18.054688 28.390625 17.996094 28.363281 17.9375 C 28.300781 17.8125 28.238281 17.683594 28.179688 17.554688 C 28.167969 17.535156 28.15625 17.511719 28.148438 17.492188 C 28.128906 17.453125 28.113281 17.414062 28.09375 17.375 C 28.035156 17.25 27.960938 17.144531 27.878906 17.035156 C 27.867188 17.015625 27.851562 16.996094 27.839844 16.976562 C 27.621094 16.75 27.328125 16.628906 27.019531 16.613281 C 26.707031 16.613281 26.414062 16.734375 26.1875 16.945312 C 26.089844 17.050781 26.015625 17.171875 25.953125 17.300781 C 25.941406 17.324219 25.929688 17.351562 25.914062 17.375 C 25.910156 17.386719 25.902344 17.402344 25.898438 17.414062 C 25.867188 17.476562 25.832031 17.539062 25.800781 17.605469 C 25.789062 17.628906 25.777344 17.65625 25.761719 17.679688 C 25.742188 17.71875 25.722656 17.757812 25.703125 17.796875 C 25.617188 17.972656 25.53125 18.148438 25.449219 18.328125 C 25.363281 18.503906 25.277344 18.683594 25.1875 18.863281 C 25.140625 18.960938 25.09375 19.058594 25.046875 19.15625 C 25.035156 19.175781 25.027344 19.191406 25.015625 19.214844 C 24.941406 19.367188 24.867188 19.519531 24.792969 19.671875 C 24.691406 19.882812 24.589844 20.09375 24.488281 20.300781 C 24.480469 20.316406 24.472656 20.332031 24.464844 20.347656 C 24.4375 20.410156 24.40625 20.46875 24.378906 20.53125 C 24.300781 20.691406 24.222656 20.851562 24.144531 21.011719 C 24.136719 21.023438 24.132812 21.039062 24.125 21.050781 C 24.089844 21.125 24.054688 21.195312 24.023438 21.265625 C 23.960938 21.390625 23.898438 21.519531 23.835938 21.648438 C 23.800781 21.71875 23.765625 21.789062 23.734375 21.859375 C 23.71875 21.886719 23.707031 21.917969 23.691406 21.945312 C 23.683594 21.957031 23.675781 21.972656 23.671875 21.988281 C 23.609375 22.113281 23.609375 22.113281 23.589844 22.15625 C 23.574219 22.1875 23.558594 22.214844 23.546875 22.242188 C 23.511719 22.3125 23.476562 22.386719 23.441406 22.457031 C 23.382812 22.582031 23.320312 22.710938 23.257812 22.839844 C 23.101562 23.15625 22.949219 23.476562 22.792969 23.796875 C 22.644531 24.097656 22.5 24.402344 22.351562 24.707031 C 22.289062 24.832031 22.226562 24.960938 22.164062 25.089844 C 22.132812 25.160156 22.097656 25.230469 22.0625 25.300781 C 22.046875 25.328125 22.035156 25.359375 22.019531 25.386719 C 22.015625 25.402344 22.007812 25.414062 22 25.429688 C 21.277344 26.917969 21.277344 26.917969 21.257812 26.960938 C 21.242188 26.992188 21.230469 27.019531 21.214844 27.046875 C 21.179688 27.117188 21.144531 27.1875 21.113281 27.261719 C 21.050781 27.386719 20.988281 27.515625 20.925781 27.640625 C 20.769531 27.960938 20.617188 28.28125 20.460938 28.601562 C 20.382812 28.761719 20.304688 28.925781 20.226562 29.085938 C 20.21875 29.101562 20.210938 29.113281 20.203125 29.128906 C 20.171875 29.199219 20.136719 29.269531 20.101562 29.339844 C 20.03125 29.484375 19.960938 29.628906 19.890625 29.773438 C 19.707031 30.148438 19.707031 30.148438 19.53125 30.523438 C 19.523438 30.539062 19.515625 30.558594 19.507812 30.574219 C 19.425781 30.757812 19.40625 30.945312 19.46875 31.140625 C 19.535156 31.324219 19.675781 31.472656 19.855469 31.554688 C 20.058594 31.628906 20.234375 31.605469 20.429688 31.515625 C 20.503906 31.476562 20.578125 31.4375 20.648438 31.394531 C 20.671875 31.382812 20.691406 31.371094 20.710938 31.359375 C 20.863281 31.277344 21.011719 31.191406 21.160156 31.101562 C 21.3125 31.011719 21.464844 30.929688 21.617188 30.84375 C 21.78125 30.753906 21.941406 30.660156 22.105469 30.566406 C 22.199219 30.511719 22.292969 30.457031 22.390625 30.402344 C 22.429688 30.378906 22.472656 30.355469 22.515625 30.332031 C 22.53125 30.320312 22.53125 30.320312 22.546875 30.3125 C 22.609375 30.277344 22.671875 30.242188 22.734375 30.203125 C 22.785156 30.175781 22.835938 30.144531 22.886719 30.117188 C 22.898438 30.109375 22.90625 30.105469 22.917969 30.097656 C 23.0625 30.015625 23.207031 29.933594 23.351562 29.855469 C 23.496094 29.773438 23.636719 29.691406 23.78125 29.605469 C 23.847656 29.566406 23.914062 29.527344 23.980469 29.488281 C 24.003906 29.476562 24.003906 29.476562 24.023438 29.464844 C 24.066406 29.441406 24.105469 29.417969 24.144531 29.394531 C 24.15625 29.386719 24.167969 29.382812 24.179688 29.375 C 24.203125 29.359375 24.230469 29.347656 24.257812 29.332031 C 24.269531 29.339844 24.28125 29.34375 24.292969 29.351562 C 23.917969 29.605469 23.542969 29.859375 23.164062 30.109375 C 22.90625 30.277344 22.652344 30.449219 22.398438 30.621094 C 22.140625 30.796875 21.882812 30.96875 21.621094 31.140625 C 21.59375 31.160156 21.566406 31.175781 21.542969 31.195312 C 21.527344 31.203125 21.515625 31.210938 21.5 31.222656 C 21.40625 31.28125 21.3125 31.34375 21.21875 31.410156 C 21.148438 31.453125 21.078125 31.5 21.007812 31.546875 C 20.976562 31.570312 20.941406 31.59375 20.910156 31.617188 C 20.863281 31.648438 20.816406 31.679688 20.765625 31.710938 C 20.746094 31.722656 20.746094 31.722656 20.726562 31.738281 C 20.464844 31.910156 20.191406 31.980469 19.878906 31.921875 C 19.585938 31.839844 19.363281 31.664062 19.210938 31.394531 C 19.136719 31.230469 19.105469 31.085938 19.101562 30.910156 C 19.101562 30.894531 19.101562 30.878906 19.097656 30.863281 C 19.097656 30.625 19.199219 30.394531 19.28125 30.171875 C 19.308594 30.101562 19.335938 30.03125 19.363281 29.957031 C 19.371094 29.933594 19.371094 29.933594 19.378906 29.910156 C 19.460938 29.691406 19.539062 29.472656 19.621094 29.253906 C 19.636719 29.207031 19.652344 29.160156 19.671875 29.113281 C 19.757812 28.875 19.84375 28.640625 19.929688 28.402344 C 19.9375 28.382812 19.945312 28.363281 19.949219 28.339844 C 19.992188 28.222656 19.992188 28.222656 20.035156 28.105469 C 20.15625 27.773438 20.277344 27.441406 20.398438 27.109375 C 20.496094 26.847656 20.59375 26.582031 20.6875 26.3125 C 20.78125 26.050781 20.878906 25.789062 20.972656 25.527344 C 21.089844 25.210938 21.207031 24.898438 21.316406 24.582031 C 21.429688 24.269531 21.542969 23.957031 21.65625 23.644531 C 21.773438 23.332031 21.886719 23.019531 22 22.707031 C 22.105469 22.414062 22.210938 22.121094 22.316406 21.828125 C 22.324219 21.800781 22.324219 21.800781 22.335938 21.773438 C 22.414062 21.554688 22.496094 21.335938 22.574219 21.117188 C 22.582031 21.097656 22.589844 21.078125 22.597656 21.054688 C 22.605469 21.035156 22.613281 21.015625 22.621094 20.992188 C 22.847656 20.378906 23.066406 19.765625 23.285156 19.148438 C 23.320312 19.054688 23.355469 18.960938 23.390625 18.867188 C 23.398438 18.839844 23.410156 18.808594 23.421875 18.777344 C 23.425781 18.761719 23.433594 18.746094 23.4375 18.730469 C 23.46875 18.652344 23.496094 18.574219 23.523438 18.496094 C 23.539062 18.449219 23.558594 18.402344 23.578125 18.355469 C 23.628906 18.222656 23.675781 18.089844 23.722656 17.957031 C 23.734375 17.917969 23.75 17.878906 23.761719 17.839844 C 23.769531 17.8125 23.78125 17.789062 23.789062 17.765625 C 23.8125 17.695312 23.835938 17.628906 23.863281 17.5625 C 23.890625 17.484375 23.917969 17.40625 23.945312 17.332031 C 23.957031 17.296875 23.96875 17.265625 23.980469 17.234375 C 23.988281 17.21875 23.992188 17.203125 24 17.183594 C 24.257812 16.464844 24.519531 15.742188 24.785156 15.019531 C 24.933594 14.613281 25.082031 14.207031 25.230469 13.800781 C 25.339844 13.492188 25.453125 13.1875 25.5625 12.878906 C 25.605469 12.765625 25.644531 12.652344 25.6875 12.535156 C 25.726562 12.421875 25.769531 12.308594 25.808594 12.195312 C 25.832031 12.136719 25.855469 12.074219 25.875 12.015625 C 25.902344 11.945312 25.925781 11.878906 25.949219 11.808594 C 25.957031 11.789062 25.964844 11.769531 25.972656 11.75 C 26.09375 11.414062 26.226562 11.105469 26.5625 10.941406 C 26.878906 10.796875 27.234375 10.789062 27.53125 10.988281 Z M 27.53125 10.988281 "/>
<path style=" stroke:none;fill-rule:nonzero;fill:rgb(8.235294%,37.254903%,19.215687%);fill-opacity:1;" d="M 24.257812 29.332031 C 24.269531 29.339844 24.28125 29.34375 24.292969 29.351562 C 24.226562 29.394531 24.15625 29.441406 24.085938 29.488281 C 24.074219 29.484375 24.0625 29.476562 24.050781 29.472656 C 24.117188 29.417969 24.183594 29.371094 24.257812 29.332031 Z M 24.257812 29.332031 "/>
</g>
</svg>
